<svg xmlns="http://www.w3.org/2000/svg" viewBox="0 0 24 24" role="img" aria-labelledby="amazonMusicTitle">
  <title id="amazonMusicTitle">Amazon Music</title>
  <path fill="#FF9900" d="M7.1 16.1c2.9 1.7 6.7 1.8 9.6.2.4-.2.8.3.4.6-2.7 2.4-7.7 2.7-10.8.5-.4-.3-.1-.8.4-.6.2 0 .3.1.4.1z"/>
  <path fill="#FF9900" d="M17.8 15.1c-.3-.4-2-.2-2.8-.1-.2 0-.3-.2-.1-.4 1.1-.8 2.8-.6 3-.3.3.3-.1 2.2-1 3.1-.2.2-.4.1-.3-.1.2-.8.5-1.9.2-2.2z"/>
  <path fill="#FF9900" d="M5.9 9.7c0-2.4 1.8-3.6 4.2-3.6 1.1 0 2.5.3 3.3 1 .7.6.6 1.4.6 2.2v3.2c0 .9.4 1.3.8 1.8.1.2.1.4 0 .5l-1.2 1c-.2.1-.4.1-.5 0-.5-.5-.6-.7-.9-1.1-.9.9-1.5 1.2-2.7 1.2-1.4 0-2.5-.9-2.5-2.6 0-1.4.7-2.3 1.8-2.8.9-.4 2.2-.5 3.2-.6v-.2c0-.4 0-.8-.2-1.1-.2-.3-.6-.4-1-.4-.7 0-1.3.3-1.4 1.1 0 .2-.2.3-.4.3l-1.7-.2c-.2 0-.3-.2-.3-.4zm5.9 2c-1.1 0-2.3.2-2.3 1.5 0 .7.4 1.1.9 1.1.4 0 .9-.3 1.1-.8.3-.6.3-1.1.3-1.8z"/>
  <path fill="#00A8E1" d="M17.9 5.5c.4 0 .7.3.7.7v5.2c.5-.2 1.1-.1 1.5.2.8.5.8 1.5.1 2.1-.7.6-1.8.6-2.5 0-.4-.3-.5-.8-.4-1.3V7.1l-3.2.8v3.8c.5-.2 1.1-.1 1.5.2.8.5.8 1.5.1 2.1-.7.6-1.8.6-2.5 0-.4-.3-.5-.8-.4-1.3V7.4c0-.3.2-.6.5-.7l4.6-1.2z"/>
</svg>
