<svg xmlns="http://www.w3.org/2000/svg" viewBox="0 0 24 24" role="img" aria-labelledby="neteaseTitle">
  <title id="neteaseTitle">NetEase Cloud Music</title>
  <circle cx="12" cy="12" r="10.5" fill="#D33A31"/>
  <path fill="#fff" d="M13.6 6.1c-.3-.2-.8.1-.8.5v5.7c-.5-.2-1.1-.2-1.7 0-1.2.3-2.1 1.2-2.1 2.2 0 1.3 1.4 2.2 3 1.8 1.2-.3 2.1-1.2 2.1-2.2V8.2c1.2.6 2 1.7 2 3 0 1.5-1 2.8-2.4 3.3-.4.1-.6.5-.5.9.1.4.5.6.9.5 2-.7 3.4-2.5 3.4-4.7 0-2.2-1.5-4.2-3.9-5.1zm-2 8.9c-.7.2-1.2 0-1.2-.4 0-.3.4-.7.9-.8.7-.2 1.2 0 1.2.4 0 .3-.4.7-.9.8z"/>
  <path fill="#fff" d="M12 3.9a8.1 8.1 0 1 0 0 16.2 8.1 8.1 0 0 0 6.5-13c-.2-.3-.7-.4-1-.1-.3.2-.4.7-.1 1a6.7 6.7 0 1 1-2.1-1.8c.3.2.8.1 1-.2.2-.4.1-.8-.2-1A8 8 0 0 0 12 3.9z" opacity=".9"/>
</svg>
